<?xml version="1.0" standalone="no"?>
<!DOCTYPE svg PUBLIC "-//W3C//DTD SVG 20010904//EN"
 "http://www.w3.org/TR/2001/REC-SVG-20010904/DTD/svg10.dtd">
<svg version="1.0" xmlns="http://www.w3.org/2000/svg"
 width="260.000000pt" height="260.000000pt" viewBox="0 0 260.000000 260.000000"
 preserveAspectRatio="xMidYMid meet">
<metadata>
Created by potrace 1.14, written by Peter Selinger 2001-2017
</metadata>
<g transform="translate(0.000000,260.000000) scale(0.100000,-0.100000)"
fill="#000000" stroke="none">
<path d="M0 1300 l0 -1300 1300 0 1300 0 0 1300 0 1300 -1300 0 -1300 0 0
-1300z m1766 814 c46 -22 89 -76 103 -128 6 -22 20 -90 31 -151 14 -71 27
-114 37 -122 10 -8 49 -13 98 -13 138 0 216 -34 256 -111 19 -38 19 -56 17
-528 l-3 -489 -31 -39 c-62 -77 -20 -73 -755 -73 l-656 0 -44 23 c-49 25 -85
84 -96 153 -8 53 -19 64 -62 64 -86 0 -155 40 -190 109 -19 36 -28 84 -90 451
-17 102 -36 208 -41 235 -34 170 -40 204 -40 237 0 20 4 48 9 61 15 38 72 98
107 113 31 13 154 39 299 64 39 6 104 18 145 25 41 8 109 19 150 25 41 6 93
15 115 20 22 5 81 16 130 25 50 8 144 26 210 39 148 29 254 32 301 10z"/>
<path d="M1585 2031 c-22 -5 -69 -13 -105 -20 -36 -6 -101 -18 -145 -26 -44
-8 -160 -28 -257 -45 -98 -16 -197 -34 -220 -39 -24 -5 -88 -17 -143 -26 -190
-30 -252 -46 -279 -72 -47 -43 -47 -72 3 -353 17 -96 44 -254 61 -350 47 -269
65 -304 161 -298 l54 3 6 370 c3 204 9 382 13 397 10 34 57 81 105 105 33 16
80 18 506 23 l470 5 -1 45 c-1 67 -22 187 -38 218 -8 15 -22 35 -33 44 -22 20
-102 29 -158 19z"/>
<path d="M872 1580 c-61 -37 -63 -50 -60 -447 3 -413 -3 -393 99 -303 34 30
84 72 112 93 45 34 55 37 94 32 58 -6 76 -17 151 -86 34 -33 68 -59 75 -59 23
0 73 40 241 195 67 62 130 111 154 122 34 15 92 16 128 3 14 -6 96 -74 181
-151 84 -77 158 -137 163 -134 6 4 10 139 10 343 0 370 1 366 -60 397 -25 13
-118 15 -642 15 -597 0 -614 -1 -646 -20z m453 -175 c18 -15 44 -47 56 -72 40
-82 7 -188 -71 -228 -37 -19 -117 -19 -161 -1 -100 43 -128 180 -57 272 53 67
164 81 233 29z"/>
</g>
</svg>
